<svg width="154" height="23" viewBox="0 0 154 23" fill="none" xmlns="http://www.w3.org/2000/svg">
<path d="M0.496 0.688H5.136V22H0.496V0.688ZM14.409 4.72H8.585V0.688H24.841V4.72H19.081V22H14.409V4.72ZM34.4588 0.688H39.1308V8.944H48.1868V0.688H52.8908V22H48.1868V12.912H39.1308V22H34.4588V0.688ZM66.261 22.416C64.4903 22.416 62.933 22.0427 61.589 21.296C60.245 20.5493 59.1997 19.504 58.453 18.16C57.7277 16.7947 57.365 15.2267 57.365 13.456V0.688H62.037V13.104C62.037 14.6827 62.4103 15.9413 63.157 16.88C63.925 17.7973 64.9597 18.256 66.261 18.256C67.5623 18.256 68.597 17.7973 69.365 16.88C70.133 15.9413 70.517 14.6827 70.517 13.104V0.688H75.157V13.456C75.157 15.2267 74.7837 16.7947 74.037 18.16C73.3117 19.504 72.277 20.5493 70.933 21.296C69.589 22.0427 68.0317 22.416 66.261 22.416ZM79.6463 0.688H85.0863L93.9183 15.632V0.688H98.1743V22H92.7983L83.9023 6.96V22H79.6463V0.688ZM107.19 4.72H101.366V0.688H117.622V4.72H111.862V22H107.19V4.72ZM120.834 0.688H133.794V4.72H125.41V8.976H132.354V12.88H125.41V17.968H133.794V22H120.834V0.688ZM137.674 0.688C138.315 0.666665 139.509 0.655998 141.259 0.655998C143.029 0.655998 144.235 0.666665 144.875 0.688C147.307 0.773332 149.12 1.37067 150.315 2.48C151.509 3.568 152.107 5.04 152.107 6.896C152.107 8.47467 151.701 9.81867 150.891 10.928C150.101 12.016 148.992 12.7307 147.563 13.072C148.011 13.4347 148.469 13.936 148.939 14.576C149.408 15.1947 150.059 16.1653 150.891 17.488C151.765 18.8747 152.651 20.3787 153.547 22H148.171L144.555 15.28C144.171 14.576 143.819 14.1387 143.499 13.968C143.2 13.776 142.741 13.68 142.123 13.68V22H137.674V0.688ZM144.107 10.128C145.195 10.128 146.048 9.85067 146.667 9.296C147.307 8.74133 147.627 7.99467 147.627 7.056C147.627 6.20267 147.349 5.552 146.795 5.104C146.24 4.656 145.429 4.432 144.363 4.432H142.123V10.128H144.107Z" fill="#040404"/>
</svg>
