 <svg
            width="24"
            height="24"
            viewBox="0 0 24 24"
            fill="none"
            xmlns="http://www.w3.org/2000/svg"
          >
            <mask
              id="mask0_6_75"
              maskUnits="userSpaceOnUse"
              x="0"
              y="0"
              width="24"
              height="24"
            >
              <g clip-path="url(#clip0_6_75)">
                <g clip-path="url(#clip1_6_75)">
                  <path
                    fill-rule="evenodd"
                    clip-rule="evenodd"
                    d="M19.9668 10.6151C19.9668 12.9704 19.0895 15.1233 17.6474 16.769L22.7369 21.8591L21.8583 22.7373L16.7688 17.6478C15.1231 19.0902 12.9699 19.9672 10.6146 19.9672C5.45833 19.9672 1.26318 15.7718 1.26318 10.6153C1.26318 5.45857 5.45833 1.26315 10.6146 1.26315C15.7716 1.26315 19.9668 5.4583 19.9668 10.6151ZM2.50569 10.6151C2.50569 15.0864 6.14328 18.7244 10.6146 18.7244C15.0867 18.7244 18.7242 15.0864 18.7242 10.6151C18.7242 6.14298 15.0867 2.50539 10.6146 2.50539C6.14328 2.50539 2.50569 6.14298 2.50569 10.6151Z"
                    fill="white"
                  />
                  <path
                    d="M17.6474 16.769L17.22 16.3944L16.8692 16.7947L17.2455 17.171L17.6474 16.769ZM22.7369 21.8591L23.1389 22.2611L23.5408 21.8592L23.1389 21.4571L22.7369 21.8591ZM21.8584 22.7373L21.4565 23.1393L21.8583 23.5412L22.2602 23.1394L21.8584 22.7373ZM16.7689 17.6478L17.1708 17.2459L16.7945 16.8696L16.3942 17.2204L16.7689 17.6478ZM18.0749 17.1437C19.6038 15.3989 20.5352 13.1142 20.5352 10.6151H19.3984C19.3984 12.8265 18.5753 14.8477 17.22 16.3944L18.0749 17.1437ZM23.1389 21.4571L18.0493 16.3671L17.2455 17.171L22.335 22.261L23.1389 21.4571ZM22.2602 23.1394L23.1389 22.2611L22.335 21.4571L21.4565 22.3354L22.2602 23.1394ZM16.367 18.0498L21.4565 23.1393L22.2603 22.3354L17.1708 17.2459L16.367 18.0498ZM10.6146 20.5357C13.1137 20.5357 15.3987 19.6046 17.1435 18.0753L16.3942 17.2204C14.8475 18.576 12.8261 19.3988 10.6146 19.3988V20.5357ZM0.694824 10.6153C0.694824 16.0857 5.14442 20.5357 10.6146 20.5357V19.3988C5.77235 19.3988 1.83167 15.4579 1.83167 10.6153H0.694824ZM10.6146 0.694733C5.14442 0.694733 0.694824 5.14467 0.694824 10.6153H1.83167C1.83167 5.77245 5.77237 1.83157 10.6146 1.83157V0.694733ZM20.5352 10.6151C20.5352 5.14436 16.0855 0.694733 10.6146 0.694733V1.83157C15.4577 1.83157 19.3984 5.77224 19.3984 10.6151H20.5352ZM10.6146 18.156C6.45731 18.156 3.07417 14.7725 3.07417 10.6151H1.93733C1.93733 15.4003 5.82936 19.2928 10.6146 19.2928V18.156ZM18.1558 10.6151C18.1558 14.7724 14.7727 18.156 10.6146 18.156V19.2928C15.4006 19.2928 19.2927 15.4003 19.2927 10.6151H18.1558ZM10.6146 3.07381C14.7727 3.07381 18.1558 6.45692 18.1558 10.6151H19.2927C19.2927 5.82905 15.4006 1.93697 10.6146 1.93697V3.07381ZM3.07417 10.6151C3.07417 6.45688 6.45731 3.07381 10.6146 3.07381V1.93697C5.82937 1.93697 1.93733 5.82909 1.93733 10.6151H3.07417Z"
                    fill="white"
                  />
                </g>
              </g>
            </mask>
            <g mask="url(#mask0_6_75)">
              <rect width="24" height="24" fill="#0A0A0A" />
            </g>
            <defs>
              <clipPath id="clip0_6_75">
                <rect width="24" height="24" fill="white" />
              </clipPath>
              <clipPath id="clip1_6_75">
                <rect width="24" height="24" fill="white" />
              </clipPath>
            </defs>
          </svg>